<svg width="48" height="48" viewBox="0 0 48 48" fill="none" xmlns="http://www.w3.org/2000/svg">
<path fill-rule="evenodd" clip-rule="evenodd" d="M48 24C48 35.3507 40.1203 44.861 29.5327 47.3592C26.5741 47.532 24.5782 45.8773 26.352 39.8625L40.7985 7.64173C41.2588 6.96427 40.1421 7.22195 39.4231 7.38784C39.3208 7.41145 39.2266 7.43319 39.1461 7.45012C30.7639 9.21294 25.774 15.5494 27.3071 25.5869C24.5573 23.7498 2.50234 17.8352 2.69074 25.264C2.97194 36.3517 11.1546 38.6883 15.6726 39.1918C20.1907 39.6952 16.3181 46.9253 13.1388 45.3595C12.9817 45.2821 12.8344 45.2214 12.6968 45.177C5.14068 41.1355 0 33.1681 0 24C0 10.7452 10.7452 0 24 0C37.2548 0 48 10.7452 48 24ZM21.3676 33.5075C23.1033 33.1621 24.2304 31.475 23.885 29.7393C23.5395 28.0036 21.8525 26.8765 20.1167 27.222C18.381 27.5674 17.254 29.2545 17.5994 30.9902C17.9448 32.7259 19.6319 33.853 21.3676 33.5075ZM25.6695 4.02174L24.9459 23.2418C23.8043 22.881 22.6094 22.5806 21.3716 22.3499C20.7819 22.2401 20.1956 22.1484 19.6141 22.0746C15.4506 13.9549 19.9267 7.69815 24.0805 4.75545C24.1779 4.68646 24.2996 4.58936 24.432 4.48368C24.9509 4.06949 25.635 3.52349 25.6695 4.02174Z" fill="#FC7B40"/>
</svg>
