<svg width="260" height="260" viewBox="0 0 260 260" fill="none" xmlns="http://www.w3.org/2000/svg">
<path fill-rule="evenodd" clip-rule="evenodd" d="M258 133.774C258 194.311 215.975 245.032 159.508 258.356C143.729 259.279 133.084 250.454 142.544 218.375L219.592 46.5302C222.047 42.917 216.091 44.2913 212.257 45.1761C211.711 45.302 211.208 45.418 210.779 45.5083C166.074 54.91 139.461 88.7044 147.638 142.238C132.972 132.44 15.3458 100.896 16.3506 140.516C17.8503 199.65 61.4914 212.112 85.5874 214.797C109.683 217.482 89.0298 256.043 72.0738 247.691C71.2353 247.278 70.4498 246.955 69.7157 246.718C29.4167 225.163 2 182.671 2 133.774C2 63.082 59.3076 5.77441 130 5.77441C200.692 5.77441 258 63.082 258 133.774ZM115.961 184.481C125.218 182.639 131.229 173.641 129.387 164.384C127.544 155.127 118.547 149.116 109.289 150.958C100.032 152.801 94.0214 161.798 95.8636 171.055C97.7059 180.313 106.704 186.324 115.961 184.481ZM138.903 27.2236L135.044 129.73C128.956 127.806 122.583 126.204 115.982 124.974C112.837 124.388 109.709 123.899 106.608 123.505C84.4024 80.2005 108.275 46.8311 130.429 31.1367C130.948 30.7688 131.597 30.2509 132.303 29.6873C135.071 27.4782 138.719 24.5663 138.903 27.2236Z" fill="#FC7B40"/>
</svg>
